<svg id="svg" xmlns="http://www.w3.org/2000/svg" xmlns:xlink="http://www.w3.org/1999/xlink" width="400" height="400" viewBox="0, 0, 400,400"><g id="svgg"><path id="path0" d="M127.000 12.335 C 121.554 14.262,117.449 20.920,118.193 26.622 C 118.363 27.930,118.019 30.950,117.427 33.333 C 115.971 39.197,115.859 80.076,117.270 90.667 C 117.783 94.517,118.327 102.542,118.479 108.500 L 118.756 119.333 110.212 119.312 C 105.512 119.300,99.567 119.001,97.000 118.649 C 94.433 118.296,82.733 117.698,71.000 117.319 C 59.267 116.940,46.713 116.192,43.102 115.656 C 25.126 112.990,18.232 113.593,13.588 118.236 C 3.953 127.871,11.093 141.983,25.609 141.996 C 27.778 141.998,34.378 142.599,40.276 143.332 C 46.519 144.107,59.496 144.956,71.333 145.363 C 82.517 145.748,94.067 146.327,97.000 146.651 C 99.933 146.974,106.559 147.260,111.725 147.286 L 121.116 147.333 121.891 154.500 C 124.110 175.021,125.126 208.149,124.048 224.822 C 122.948 241.845,121.965 254.257,121.697 254.526 C 121.498 254.725,73.270 253.338,46.000 252.349 C 40.683 252.157,33.183 251.513,29.333 250.919 C 16.871 248.997,9.363 253.915,9.363 264.000 C 9.363 277.069,18.979 280.038,64.333 280.974 C 83.149 281.361,120.156 282.598,120.397 282.846 C 120.479 282.931,120.118 289.300,119.596 297.000 C 118.323 315.759,118.109 375.071,119.298 379.322 C 121.946 388.781,134.293 392.384,141.719 385.865 C 146.445 381.715,146.250 383.376,146.412 345.889 C 146.540 316.390,147.289 293.541,148.342 287.000 L 148.664 285.000 172.165 285.155 C 185.091 285.240,202.867 285.623,211.667 286.008 C 220.467 286.392,233.475 286.895,240.573 287.126 L 253.480 287.546 253.068 294.273 C 251.337 322.551,252.239 367.403,254.728 376.842 C 257.410 387.013,271.340 389.909,278.478 381.780 C 281.763 378.039,282.345 374.954,281.334 366.667 C 280.065 356.273,279.666 316.111,280.691 301.836 L 281.540 290.006 289.270 290.372 C 293.521 290.573,301.800 291.203,307.667 291.771 C 324.475 293.399,377.790 292.127,386.322 289.893 C 402.800 285.580,396.540 261.225,379.390 262.925 C 367.709 264.083,322.541 264.832,313.000 264.025 C 307.500 263.561,298.588 262.977,293.195 262.729 C 287.802 262.481,283.255 262.141,283.092 261.972 C 282.601 261.469,282.400 220.411,282.785 199.667 C 283.117 181.831,283.408 177.426,285.318 161.333 C 285.687 158.217,285.992 153.717,285.995 151.333 L 286.000 147.000 335.144 147.154 C 389.470 147.323,388.088 147.421,392.412 143.097 C 398.049 137.460,398.053 129.211,392.421 123.579 C 388.093 119.251,389.276 119.342,337.333 119.330 C 311.483 119.324,289.254 119.140,287.934 118.922 L 285.535 118.525 284.767 111.429 C 284.344 107.526,283.986 100.883,283.970 96.667 C 283.955 92.450,283.633 84.950,283.255 80.000 C 282.877 75.050,282.357 61.400,282.100 49.667 C 281.575 25.724,281.338 24.483,276.463 20.203 C 269.746 14.305,259.040 16.317,254.839 24.266 C 253.578 26.652,253.486 60.853,254.713 71.149 C 255.072 74.164,255.671 84.364,256.042 93.816 C 256.414 103.267,256.891 112.858,257.103 115.130 L 257.488 119.260 232.577 119.158 C 218.877 119.102,197.428 119.307,184.913 119.613 C 172.399 119.919,158.674 119.952,154.413 119.686 L 146.667 119.202 146.667 110.394 C 146.667 105.550,146.070 96.804,145.341 90.960 C 143.571 76.769,143.405 44.808,145.068 38.430 C 149.710 20.627,140.630 7.514,127.000 12.335 M198.000 14.604 C 156.515 28.536,139.027 67.175,163.630 90.545 C 186.281 112.062,217.175 112.561,229.275 91.606 C 232.759 85.572,236.511 79.753,237.851 78.305 C 253.305 61.615,253.214 43.243,237.599 27.628 C 229.404 19.433,206.273 11.826,198.000 14.604 M367.812 15.394 C 363.972 16.299,361.869 17.589,355.432 22.990 C 350.500 27.127,336.713 41.124,335.242 43.486 C 334.554 44.591,328.897 40.349,321.667 33.308 C 314.978 26.794,312.485 25.341,308.000 25.341 C 297.853 25.341,290.885 36.864,295.601 45.845 C 296.752 48.037,309.299 60.593,312.880 63.137 L 315.427 64.946 310.474 69.680 C 303.276 76.558,301.921 83.127,306.390 89.472 C 311.953 97.369,322.193 97.232,330.667 89.148 C 332.317 87.574,335.226 84.845,337.132 83.084 L 340.597 79.883 344.132 82.234 C 347.748 84.638,350.691 87.410,355.147 92.604 C 361.107 99.553,370.625 99.780,376.478 93.113 C 383.711 84.875,378.749 73.049,363.157 61.370 L 359.314 58.492 362.450 55.079 C 368.613 48.373,374.386 43.326,377.702 41.747 C 394.390 33.796,385.886 11.138,367.812 15.394 M213.098 44.780 C 216.957 46.202,219.442 48.377,220.712 51.442 C 221.723 53.884,221.570 54.197,215.969 61.106 C 213.935 63.614,211.415 67.167,210.368 69.000 C 204.941 78.503,204.137 79.366,201.103 78.939 C 194.459 78.003,189.327 75.663,183.758 71.030 L 180.516 68.333 180.868 64.918 C 181.700 56.840,189.072 48.693,199.667 44.142 C 203.505 42.493,207.394 42.678,213.098 44.780 M246.985 147.108 L 258.182 147.550 257.787 153.942 C 257.569 157.457,256.899 164.533,256.296 169.667 C 255.051 180.281,254.358 209.331,254.629 239.608 L 254.808 259.550 239.237 259.094 C 230.673 258.843,218.117 258.355,211.333 258.008 C 204.550 257.662,188.143 257.369,174.873 257.356 C 158.185 257.340,150.607 257.109,150.296 256.606 C 149.854 255.890,150.580 242.911,152.113 224.130 C 152.993 213.341,152.044 178.859,150.329 159.333 C 149.797 153.283,149.356 148.183,149.348 148.000 C 149.340 147.817,159.608 147.757,172.167 147.868 C 184.725 147.978,197.700 147.794,201.000 147.458 C 208.444 146.700,232.074 146.520,246.985 147.108 M334.667 151.063 C 333.383 151.619,331.583 152.758,330.667 153.594 C 329.750 154.430,327.595 155.631,325.877 156.262 C 316.958 159.541,310.032 166.157,305.233 175.981 C 303.347 179.842,301.253 184.082,300.580 185.404 C 288.349 209.424,293.893 236.700,312.837 245.696 C 332.251 254.916,371.888 248.805,387.369 234.206 C 398.676 223.542,402.562 202.856,395.544 190.682 C 381.864 166.948,348.348 145.137,334.667 151.063 M230.425 158.310 C 226.979 159.538,224.168 162.291,222.230 166.333 C 218.820 173.445,200.917 195.487,198.699 195.303 C 197.587 195.210,191.523 185.859,188.061 178.897 C 185.480 173.709,183.232 170.130,181.717 168.800 C 172.235 160.475,157.201 168.628,158.919 181.163 C 159.645 186.458,169.810 205.037,175.082 210.703 C 177.142 212.917,177.078 213.387,174.492 215.078 C 165.980 220.642,154.929 230.660,153.249 234.333 C 148.291 245.174,158.991 257.039,170.137 253.060 C 171.495 252.575,175.395 249.922,178.803 247.164 C 182.212 244.406,187.548 240.213,190.663 237.845 L 196.326 233.540 202.719 239.270 C 206.236 242.421,211.291 246.950,213.954 249.333 C 224.133 258.446,232.266 259.221,238.488 251.672 C 245.539 243.119,242.575 236.708,224.333 221.054 C 221.400 218.537,218.922 216.286,218.826 216.051 C 218.731 215.816,221.014 213.194,223.900 210.225 C 236.223 197.550,248.144 180.002,249.082 173.156 C 250.499 162.818,240.376 154.762,230.425 158.310 M353.000 184.874 C 358.383 189.225,368.875 200.532,370.605 203.847 C 372.160 206.827,369.684 213.140,366.059 215.439 C 357.965 220.572,333.486 224.032,326.351 221.050 C 321.390 218.978,320.769 208.207,325.098 199.333 C 326.619 196.217,328.549 191.942,329.387 189.835 C 331.333 184.940,332.927 183.487,337.722 182.235 C 339.855 181.678,342.184 180.813,342.897 180.314 C 344.498 179.193,347.836 180.699,353.000 184.874 M17.661 299.243 C 4.217 305.351,9.158 324.399,29.101 343.343 C 35.013 348.959,35.351 347.446,26.742 353.913 C 10.857 365.847,8.072 370.558,11.910 379.006 C 16.231 388.517,27.510 389.772,36.530 381.744 C 37.889 380.535,42.661 376.792,47.135 373.428 C 51.609 370.063,55.451 367.015,55.674 366.655 C 56.452 365.396,58.168 366.026,63.564 369.551 C 85.992 384.202,93.839 386.196,100.975 379.061 C 109.918 370.117,106.207 361.602,89.234 352.120 L 79.467 346.664 92.304 333.789 C 104.342 321.716,105.193 320.699,105.970 317.457 C 108.813 305.606,96.717 296.174,85.822 301.747 C 84.636 302.353,79.317 307.233,74.000 312.591 C 64.133 322.535,56.599 329.333,55.445 329.333 C 53.409 329.333,42.153 316.654,38.838 310.627 C 32.505 299.111,25.840 295.528,17.661 299.243 " stroke="none" fill="#000000" fill-rule="evenodd"></path></g></svg>